:FULLY-SPECIFIED
:FORCE-ALL-JOINTS-BE-3DOF
:DEGREES
437
root 10.4854 17.1564 25.5736 7.81834 -1.95406 -0.195598
lfemur -33.1661 3.8422 -24.8521
ltibia 31.6176 0 0
lfoot -6.21354 6.94442 0
ltoes 4.66039 0 0
rfemur -3.72514 -0.0383415 19.6993
rtibia 51.1421 0 0
rfoot 15.7595 -1.74755 0
rtoes -16.611 0 0
lowerback -5.43893 2.13911 -1.70046
upperback -3.7393 2.92339 1.00399
thorax -0.918137 1.50389 2.09629
lowerneck -17.4581 -5.3469 -14.4234
upperneck 22.6974 -6.84043 13.192
head 11.2346 -2.85706 6.28948
lclavicle 1.82946e-014 6.04691e-015 0
lhumerus -41.363 -3.88388 88.2966
lradius 19.7012 0 0
lwrist -5.06196 0 0
lhand -10.7915 -23.3413 0
lfingers 7.12502 0 0
lthumb 15.2212 6.07671 0
rclavicle 1.82946e-014 6.04691e-015 0
rhumerus -44.6644 9.42153 -90.0326
rradius 29.708 0 0
rwrist -13.3672 0 0
rhand -27.6492 -26.1928 0
rfingers 7.12502 0 0
rthumb -1.04675 -56.1525 0
438
root 10.4986 17.164 25.6964 7.70288 -1.76146 -0.0978983
lfemur -32.4092 3.81644 -24.9758
ltibia 31.3927 0 0
lfoot -6.60042 6.82283 0
ltoes 4.56891 0 0
rfemur -4.68655 -0.0347269 19.5937
rtibia 51.2402 0 0
rfoot 14.5766 -2.01152 0
rtoes -16.5491 0 0
lowerback -5.42196 1.93965 -1.76423
upperback -3.62704 2.66017 1.03044
thorax -0.793196 1.36928 2.14328
lowerneck -17.626 -5.25706 -14.2581
upperneck 22.7784 -6.71631 13.0643
head 11.2716 -2.79726 6.23496
lclavicle 1.80494e-014 6.38677e-015 0
lhumerus -40.4522 -4.37297 88.2116
lradius 19.924 0 0
lwrist -4.80007 0 0
lhand -10.9087 -23.3795 0
lfingers 7.12502 0 0
lthumb 15.1082 6.04613 0
rclavicle 1.80494e-014 6.38677e-015 0
rhumerus -44.7105 9.46799 -89.9319
rradius 30.008 0 0
rwrist -13.5513 0 0
rhand -28.0174 -25.8269 0
rfingers 7.12502 0 0
rthumb -1.40219 -55.7767 0
439
root 10.5119 17.1716 25.8192 7.58743 -1.56887 -0.000199097
lfemur -31.6524 3.79069 -25.0994
ltibia 31.1677 0 0
lfoot -6.98731 6.70124 0
ltoes 4.47742 0 0
rfemur -5.64795 -0.0311122 19.4881
rtibia 51.3384 0 0
rfoot 13.3937 -2.2755 0
rtoes -16.4872 0 0
lowerback -5.40499 1.74019 -1.828
upperback -3.51478 2.39695 1.05688
thorax -0.668255 1.23467 2.19026
lowerneck -17.7939 -5.16722 -14.0929
upperneck 22.8594 -6.59218 12.9366
head 11.3086 -2.73746 6.18044
lclavicle 1.78041e-014 6.72662e-015 0
lhumerus -39.5413 -4.86206 88.1266
lradius 20.1467 0 0
lwrist -4.53817 0 0
lhand -11.026 -23.4178 0
lfingers 7.12502 0 0
lthumb 14.9952 6.01554 0
rclavicle 1.78041e-014 6.72662e-015 0
rhumerus -44.7567 9.51446 -89.8312
rradius 30.3079 0 0
rwrist -13.7354 0 0
rhand -28.3856 -25.461 0
rfingers 7.12502 0 0
rthumb -1.75763 -55.4009 0
440
root 10.5251 17.1791 25.9421 7.47197 -1.37627 0.0975001
lfemur -30.8955 3.76493 -25.223
ltibia 30.9428 0 0
lfoot -7.37419 6.57966 0
ltoes 4.38594 0 0
rfemur -6.60935 -0.0274975 19.3825
rtibia 51.4365 0 0
rfoot 12.2108 -2.53947 0
rtoes -16.4252 0 0
lowerback -5.38801 1.54072 -1.89177
upperback -3.40252 2.13372 1.08333
thorax -0.543314 1.10006 2.23724
lowerneck -17.9618 -5.07738 -13.9276
upperneck 22.9404 -6.46806 12.8089
head 11.3456 -2.67766 6.12593
lclavicle 1.75588e-014 7.06648e-015 0
lhumerus -38.6305 -5.35115 88.0416
lradius 20.3695 0 0
lwrist -4.27627 0 0
lhand -11.1433 -23.456 0
lfingers 7.12502 0 0
lthumb 14.8822 5.98495 0
rclavicle 1.75588e-014 7.06648e-015 0
rhumerus -44.8029 9.56093 -89.7305
rradius 30.6078 0 0
rwrist -13.9194 0 0
rhand -28.7538 -25.0951 0
rfingers 7.12502 0 0
rthumb -2.11308 -55.0251 0
